<mxfile host="app.diagrams.net" agent="Mozilla/5.0 (Windows NT 10.0; Win64; x64) AppleWebKit/537.36 (KHTML, like Gecko) Chrome/131.0.0.0 Safari/537.36" version="26.0.2">
  <diagram name="Page-1" id="zOEEpCLVx3BSE4MT3N1Z">
    <mxGraphModel dx="1129" dy="893" grid="1" gridSize="10" guides="1" tooltips="1" connect="1" arrows="1" fold="1" page="1" pageScale="1" pageWidth="827" pageHeight="1169" math="0" shadow="0">
      <root>
        <mxCell id="0" />
        <mxCell id="1" parent="0" />
        <mxCell id="1Dq0eQyrFuTMCGd0Xqav-1" value=":LogIn_Boundary" style="shape=umlLifeline;perimeter=lifelinePerimeter;whiteSpace=wrap;html=1;container=1;dropTarget=0;collapsible=0;recursiveResize=0;outlineConnect=0;portConstraint=eastwest;newEdgeStyle={&quot;curved&quot;:0,&quot;rounded&quot;:0};" vertex="1" parent="1">
          <mxGeometry x="480" y="160" width="140" height="360" as="geometry" />
        </mxCell>
        <mxCell id="1Dq0eQyrFuTMCGd0Xqav-2" value="" style="html=1;points=[[0,0,0,0,5],[0,1,0,0,-5],[1,0,0,0,5],[1,1,0,0,-5]];perimeter=orthogonalPerimeter;outlineConnect=0;targetShapes=umlLifeline;portConstraint=eastwest;newEdgeStyle={&quot;curved&quot;:0,&quot;rounded&quot;:0};" vertex="1" parent="1Dq0eQyrFuTMCGd0Xqav-1">
          <mxGeometry x="65" y="60" width="10" height="250" as="geometry" />
        </mxCell>
        <mxCell id="1Dq0eQyrFuTMCGd0Xqav-4" value="" style="shape=umlLifeline;perimeter=lifelinePerimeter;whiteSpace=wrap;html=1;container=1;dropTarget=0;collapsible=0;recursiveResize=0;outlineConnect=0;portConstraint=eastwest;newEdgeStyle={&quot;curved&quot;:0,&quot;rounded&quot;:0};participant=umlActor;" vertex="1" parent="1">
          <mxGeometry x="40" y="40" width="20" height="300" as="geometry" />
        </mxCell>
        <mxCell id="1Dq0eQyrFuTMCGd0Xqav-5" value="" style="html=1;points=[[0,0,0,0,5],[0,1,0,0,-5],[1,0,0,0,5],[1,1,0,0,-5]];perimeter=orthogonalPerimeter;outlineConnect=0;targetShapes=umlLifeline;portConstraint=eastwest;newEdgeStyle={&quot;curved&quot;:0,&quot;rounded&quot;:0};" vertex="1" parent="1Dq0eQyrFuTMCGd0Xqav-4">
          <mxGeometry x="5" y="50" width="10" height="230" as="geometry" />
        </mxCell>
        <mxCell id="1Dq0eQyrFuTMCGd0Xqav-6" value="Utente Guest" style="text;html=1;align=center;verticalAlign=middle;whiteSpace=wrap;rounded=0;" vertex="1" parent="1">
          <mxGeometry x="20" y="10" width="60" height="30" as="geometry" />
        </mxCell>
        <mxCell id="1Dq0eQyrFuTMCGd0Xqav-7" value="clickLogin()" style="html=1;verticalAlign=bottom;endArrow=block;curved=0;rounded=0;" edge="1" parent="1" target="1Dq0eQyrFuTMCGd0Xqav-21">
          <mxGeometry width="80" relative="1" as="geometry">
            <mxPoint x="55" y="140" as="sourcePoint" />
            <mxPoint x="165" y="140" as="targetPoint" />
          </mxGeometry>
        </mxCell>
        <mxCell id="1Dq0eQyrFuTMCGd0Xqav-8" value="insert(email, password)" style="html=1;verticalAlign=bottom;endArrow=block;curved=0;rounded=0;" edge="1" parent="1" target="1Dq0eQyrFuTMCGd0Xqav-1">
          <mxGeometry x="-0.001" width="80" relative="1" as="geometry">
            <mxPoint x="55" y="250" as="sourcePoint" />
            <mxPoint x="290" y="250" as="targetPoint" />
            <mxPoint as="offset" />
          </mxGeometry>
        </mxCell>
        <mxCell id="1Dq0eQyrFuTMCGd0Xqav-9" value="submit()" style="html=1;verticalAlign=bottom;endArrow=block;curved=0;rounded=0;" edge="1" parent="1" target="1Dq0eQyrFuTMCGd0Xqav-1">
          <mxGeometry width="80" relative="1" as="geometry">
            <mxPoint x="55" y="280" as="sourcePoint" />
            <mxPoint x="300" y="280" as="targetPoint" />
          </mxGeometry>
        </mxCell>
        <mxCell id="1Dq0eQyrFuTMCGd0Xqav-10" value="" style="html=1;verticalAlign=bottom;endArrow=block;curved=0;rounded=0;" edge="1" parent="1" target="1Dq0eQyrFuTMCGd0Xqav-25">
          <mxGeometry width="80" relative="1" as="geometry">
            <mxPoint x="545" y="324.4999999999999" as="sourcePoint" />
            <mxPoint x="350" y="325" as="targetPoint" />
          </mxGeometry>
        </mxCell>
        <mxCell id="1Dq0eQyrFuTMCGd0Xqav-11" value="LogIn(email, password)" style="edgeLabel;html=1;align=center;verticalAlign=middle;resizable=0;points=[];" vertex="1" connectable="0" parent="1Dq0eQyrFuTMCGd0Xqav-10">
          <mxGeometry x="-0.1077" y="-1" relative="1" as="geometry">
            <mxPoint x="-19" y="-9" as="offset" />
          </mxGeometry>
        </mxCell>
        <mxCell id="1Dq0eQyrFuTMCGd0Xqav-19" value="Verifica Dati" style="html=1;align=left;spacingLeft=2;endArrow=block;rounded=0;edgeStyle=orthogonalEdgeStyle;curved=0;rounded=0;" edge="1" parent="1">
          <mxGeometry relative="1" as="geometry">
            <mxPoint x="340" y="340" as="sourcePoint" />
            <Array as="points">
              <mxPoint x="370" y="340" />
              <mxPoint x="370" y="370" />
            </Array>
            <mxPoint x="340" y="370.04" as="targetPoint" />
          </mxGeometry>
        </mxCell>
        <mxCell id="1Dq0eQyrFuTMCGd0Xqav-20" value=":NavBar_Boundary" style="shape=umlLifeline;perimeter=lifelinePerimeter;whiteSpace=wrap;html=1;container=1;dropTarget=0;collapsible=0;recursiveResize=0;outlineConnect=0;portConstraint=eastwest;newEdgeStyle={&quot;curved&quot;:0,&quot;rounded&quot;:0};" vertex="1" parent="1">
          <mxGeometry x="150" y="40" width="110" height="300" as="geometry" />
        </mxCell>
        <mxCell id="1Dq0eQyrFuTMCGd0Xqav-21" value="" style="html=1;points=[[0,0,0,0,5],[0,1,0,0,-5],[1,0,0,0,5],[1,1,0,0,-5]];perimeter=orthogonalPerimeter;outlineConnect=0;targetShapes=umlLifeline;portConstraint=eastwest;newEdgeStyle={&quot;curved&quot;:0,&quot;rounded&quot;:0};" vertex="1" parent="1Dq0eQyrFuTMCGd0Xqav-20">
          <mxGeometry x="50" y="70" width="10" height="80" as="geometry" />
        </mxCell>
        <mxCell id="1Dq0eQyrFuTMCGd0Xqav-22" value="" style="shape=umlDestroy;whiteSpace=wrap;html=1;strokeWidth=3;targetShapes=umlLifeline;" vertex="1" parent="1Dq0eQyrFuTMCGd0Xqav-20">
          <mxGeometry x="40" y="135" width="30" height="30" as="geometry" />
        </mxCell>
        <mxCell id="1Dq0eQyrFuTMCGd0Xqav-23" value=":Autentication_Control" style="shape=umlLifeline;perimeter=lifelinePerimeter;whiteSpace=wrap;html=1;container=1;dropTarget=0;collapsible=0;recursiveResize=0;outlineConnect=0;portConstraint=eastwest;newEdgeStyle={&quot;curved&quot;:0,&quot;rounded&quot;:0};" vertex="1" parent="1">
          <mxGeometry x="270" y="40" width="130" height="480" as="geometry" />
        </mxCell>
        <mxCell id="1Dq0eQyrFuTMCGd0Xqav-24" value="" style="html=1;points=[[0,0,0,0,5],[0,1,0,0,-5],[1,0,0,0,5],[1,1,0,0,-5]];perimeter=orthogonalPerimeter;outlineConnect=0;targetShapes=umlLifeline;portConstraint=eastwest;newEdgeStyle={&quot;curved&quot;:0,&quot;rounded&quot;:0};" vertex="1" parent="1Dq0eQyrFuTMCGd0Xqav-23">
          <mxGeometry x="60" y="80" width="10" height="80" as="geometry" />
        </mxCell>
        <mxCell id="1Dq0eQyrFuTMCGd0Xqav-25" value="" style="html=1;points=[[0,0,0,0,5],[0,1,0,0,-5],[1,0,0,0,5],[1,1,0,0,-5]];perimeter=orthogonalPerimeter;outlineConnect=0;targetShapes=umlLifeline;portConstraint=eastwest;newEdgeStyle={&quot;curved&quot;:0,&quot;rounded&quot;:0};" vertex="1" parent="1Dq0eQyrFuTMCGd0Xqav-23">
          <mxGeometry x="60" y="260" width="10" height="170" as="geometry" />
        </mxCell>
        <mxCell id="1Dq0eQyrFuTMCGd0Xqav-26" value="viewLogIn()" style="html=1;verticalAlign=bottom;endArrow=block;curved=0;rounded=0;" edge="1" parent="1" target="1Dq0eQyrFuTMCGd0Xqav-23">
          <mxGeometry width="80" relative="1" as="geometry">
            <mxPoint x="210" y="160" as="sourcePoint" />
            <mxPoint x="290" y="160" as="targetPoint" />
            <Array as="points">
              <mxPoint x="280" y="160" />
            </Array>
          </mxGeometry>
        </mxCell>
        <mxCell id="1Dq0eQyrFuTMCGd0Xqav-27" value="createLoginPage()" style="endArrow=open;endSize=12;dashed=1;html=1;rounded=0;" edge="1" parent="1">
          <mxGeometry x="-0.1259" y="10" width="160" relative="1" as="geometry">
            <mxPoint x="340" y="180" as="sourcePoint" />
            <mxPoint x="480" y="180" as="targetPoint" />
            <mxPoint as="offset" />
          </mxGeometry>
        </mxCell>
        <mxCell id="1Dq0eQyrFuTMCGd0Xqav-50" value="showError()" style="html=1;verticalAlign=bottom;endArrow=block;curved=0;rounded=0;" edge="1" parent="1" target="1Dq0eQyrFuTMCGd0Xqav-1">
          <mxGeometry width="80" relative="1" as="geometry">
            <mxPoint x="340" y="410" as="sourcePoint" />
            <mxPoint x="420" y="410" as="targetPoint" />
          </mxGeometry>
        </mxCell>
      </root>
    </mxGraphModel>
  </diagram>
</mxfile>
